<?xml version="1.0" encoding="UTF-8"?>
<svg enable-background="new 0 0 265.007 266.893" viewBox="0 0 265.007 266.893" xmlns="http://www.w3.org/2000/svg">
 <path d="m.843,154.28c-1.345-18.494-1.41-35.373 2.284-50.7 2.653-11.01 6.767-21.029 11.419-31.059 3.158-6.81 6.27-11.903 10.505-17.813 3.918-5.467 7.07-9.328 11.875-14.159 20.338-20.447 44.319-35.679 81.302-39.737 19.654-2.157 39.973-.013 58.463,6.395 6.604,2.289 13.47,5.847 19.641,9.135 19.961,10.635 34.399,25.024 47.045,43.391 4.062,5.899 7.372,13.142 10.506,20.554 5.337,12.625 9.162,24.769 10.505,39.737 3.868,43.113-10.787,75.903-31.973,100.485-10.964,12.722-22.459,21.781-38.367,30.146-7.477,3.931-14.4,7.307-22.38,10.048-40.367,13.866-88.403,3.595-121.039-22.381-25.568-20.349-42.104-46.901-49.786-84.042zm93.634,104.595c1.328.307 1.965.64 3.197.914 6.127,1.362 12.371,2.628 19.64,3.653 19.726,2.783 39.569-.821 54.354-5.48 24.957-7.866 44.467-21.437 59.377-39.28 2.38-2.849 4.797-6.202 6.852-9.592 2.091-3.451 4.723-6.282 6.851-9.592 4.264-6.63 7.198-14.567 10.049-21.924 5.835-15.06 8.819-35.35 7.308-55.267-2.021-26.644-11.767-48.774-26.034-67.599-18.878-24.907-45.641-43.337-78.562-49.786-9.348-1.831-20.169-3.694-32.429-2.741-7.895.614-15.784,2.118-22.837,3.654-21.127,4.602-37.186,13.355-51.615,25.123-18.414,15.017-33.789,34.678-42.021,60.747-8.303,26.298-8.099,53.275-.914,80.388 3.377,12.743 9.654,24.446 16.443,34.713 6.759,10.222 14.718,19.761 24.664,26.948 12.686,11.275 29.981,21.5 45.677,25.121z" fill-rule="evenodd"/>
 <path d="m128.732,7.207c-.133.28-1.136,1.758 0,1.827-.113.496-.908.31-.914.914-1.386-.099-1.204-4.334.914-2.741z" fill-rule="evenodd"/>
 <path d="m130.103,6.75c1.586-.16 1.912,2.145 1.37,2.74-1.498.072-2.191-1.865-1.37-2.74z" fill-rule="evenodd"/>
 <path d="m133.756,6.75c2.089-.4 1.829,3.605-.456,2.74-.06-1.126-.069-2.2.456-2.74z" fill-rule="evenodd"/>
 <path d="m135.583,6.75h1.37c.384.53.603,1.224.457,2.284h-1.827v-2.284z" fill-rule="evenodd"/>
 <path d="m138.781,6.75c1.785-.057 1.899,3.181-.456,2.74-.061-1.126-.07-2.2.456-2.74z" fill-rule="evenodd"/>
 <path d="m119.141,10.404c-1.321-.202-2.082-.963-2.284-2.284 1.554-1.111 3.075,1.209 2.284,2.284z" fill-rule="evenodd"/>
 <path d="m120.054,7.663c1.06-.146 1.754.074 2.284.457-.237.676-.676,1.151-.914,1.827-.902-.316-1.217-1.218-1.37-2.284z" fill-rule="evenodd"/>
 <path d="m141.065,7.663h2.283v2.741c-1.471-.204-2.651-.697-2.283-2.741z" fill-rule="evenodd"/>
 <path d="m125.079,8.577c.193.955-.313,1.209-.457,1.827-1.466.4-.947-1.185-1.827-1.37 .046-1.163 1.702-1.079 2.284-.457z" fill-rule="evenodd"/>
 <path d="m148.373,8.12c2.226-.4 2.683,2.624 1.37,3.197-1.543-.375-1.873-1.96-1.37-3.197z" fill-rule="evenodd"/>
 <path d="m116.4,11.317c-2.464-.068-1.2-1.026-2.284-2.284 1.336-1.2 2.392.646 2.284,2.284z" fill-rule="evenodd"/>
 <path d="m145.175,8.577h1.37c.625.584.625,2.157 0,2.741-.367-.242-.741-.477-1.37-.457v-2.284z" fill-rule="evenodd"/>
 <path d="m151.57,8.577c2.032-.502 2.178,2.256 1.37,3.197-1.825-.093-1.76-2.073-1.37-3.197z" fill-rule="evenodd"/>
 <path d="m111.376,9.034c1.627-.104 2.388.657 2.284,2.284-1.437.219-1.785-.65-2.74-.914 .241-.367.476-.742.456-1.37z" fill-rule="evenodd"/>
 <path d="m108.636,9.49c1.427-.209 1.46.976 1.37,2.284-1.734.398-2.145-1.517-1.37-2.284z" fill-rule="evenodd"/>
 <path d="m154.767,9.49c1.856-.429 1.583,2.474.914,3.197-1.576.15-1.671-2.385-.914-3.197z" fill-rule="evenodd"/>
 <path d="m157.964,9.49c1.414-.312 1.902,2.617.914,3.197-2.201.774-1.403-2.653-.914-3.197z" fill-rule="evenodd"/>
 <path d="m161.162,10.404c1.939-.182 2.352,2.497.914,3.197-1.888-.116-2.004-2.499-.914-3.197z" fill-rule="evenodd"/>
 <path d="m102.698,10.86c1.162.266 2.405,1.651 1.37,2.741-1.555-.312-1.701-1.483-2.284.457-1.285-.085-1.946-.794-1.827-2.284 1.721.236 2.081.578 2.741-.914z" fill-rule="evenodd"/>
 <path d="m105.438,10.86c1.702-.483 1.474.962 2.284,1.371-.759,1.473-2.55.593-2.284-1.371z" fill-rule="evenodd"/>
 <path d="m163.902,11.774c1.135-.068 1.896.236 2.284.914 .291,1.662-.946,1.795-2.284,1.827-.624-.584-.624-2.157 0-2.741z" fill-rule="evenodd"/>
 <path d="m170.296,15.428c-1.024.971-3.009.325-3.197-.914 .253-2.63 3.644-1.847 3.197.914z" fill-rule="evenodd"/>
 <path d="m171.21,13.601c2.608-.197 1.261,2.857 4.11,1.37-.378,1.639 1.03,2.209 0,3.197-1.978.06-1.124-2.709-3.197-1.37-.354-1.015-.958-1.781-.913-3.197z" fill-rule="evenodd"/>
 <path d="m89.452,17.712c-2.134-.241-2.2.978-4.567,1.37 .03-1.773 4.202-4.173 4.567-1.37z" fill-rule="evenodd"/>
 <path d="m176.691,17.255c1.195-.128 1.965.167 1.827,1.37-.854.897-2.2.265-1.827-1.37z" fill-rule="evenodd"/>
 <path d="m180.345,18.625h1.827v1.827c-1.429.212-2.039-.397-1.827-1.827z" fill-rule="evenodd"/>
 <path d="m189.48,21.366c.294,1.004.602,1.518 0,2.741-1.43.212-2.039-.397-1.827-1.827-1.727,2.327-2.285-1.606-4.11-.457-.633-.28-.068-1.758-.913-1.827 .039-1.359 2.723-1.222 2.283.457 2.2-1.388 2.124,1.275 4.567.913z" fill-rule="evenodd"/>
 <path d="m191.764,22.736c2.089-.399 1.829,3.606-.457,2.741-1.003-.961-.095-2.031.457-2.741z" fill-rule="evenodd"/>
 <path d="m196.332,25.477c.109,1.536-1.696,2.36-2.74,1.37-.11-1.536 1.696-2.36 2.74-1.37z" fill-rule="evenodd"/>
 <path d="m197.245,25.933c1.239.188 1.885,2.172.914,3.197-1.857.43-1.583-2.473-.914-3.197z" fill-rule="evenodd"/>
 <path d="m199.529,28.217h1.37v2.284c-.531-.075-.812.101-.913.457-1.252-.01-1.085-2.155-.457-2.741z" fill-rule="evenodd"/>
 <path d="m201.812,30.044h1.371c.09,1.308.057,2.493-1.371,2.284-.586-.6-.586-1.684 0-2.284z" fill-rule="evenodd"/>
 <path d="m203.639,32.328h1.827c-.417,2.657.746.897 1.827,1.827-.354.406-.491,1.031-.457,1.827-1.518.147-.495-2.245-2.74-1.371 .187-1.1-.834-.992-.457-2.283z" fill-rule="evenodd"/>
 <path d="m208.207,34.155c1.397.567 1.458,1.328.457,2.284-1.163-.047-1.08-1.703-.457-2.284z" fill-rule="evenodd"/>
 <path d="m210.491,35.068c1.162.046 1.079,1.702.457,2.284 .819.058.963-.559 1.827-.457-.04.648-.076,1.293.456,1.371-.067.999-1.15.98-2.283.913 .752-2.135-.104-.871-1.827-.913-.466-1.989.944-2.1 1.37-3.198z" fill-rule="evenodd"/>
 <path d="m214.145,38.722c2.284-.458.32,3.333 3.197,2.284 .046,1.417-.559,2.182-.914,3.197-1.938-.964-.354-2.57-2.74-2.284 .836-1.403-.411-2.054.457-3.197z" fill-rule="evenodd"/>
 <path d="m219.168,42.833c.095,1.312-.115,2.32-.913,2.74-2.371.166-1.127-3.325.913-2.74z" fill-rule="evenodd"/>
 <path d="m220.083,45.117c2.062-.345 1.711,3.052-.457,2.284-.187-1.101.833-.993.457-2.284z" fill-rule="evenodd"/>
 <path d="m223.737,47.4c-.466.6-.448,1.684-.914,2.284-.6-.161-.718-.804-1.37-.914-.034-1.368 1.343-2.317 2.284-1.37z" fill-rule="evenodd"/>
 <path d="m224.193,48.771c1.837-.12 1.03,3.733-.913,2.741-.362-1.58.508-1.929.913-2.741z" fill-rule="evenodd"/>
 <path d="m226.934,51.055c.624.584.624,2.156 0,2.74-1.458.392-1.413-.719-2.284-.914 .086-1.284.795-1.945 2.284-1.826z" fill-rule="evenodd"/>
 <path d="m31.902,52.425c.212,1.43-.397,2.039-1.827,1.827 .055-1.163.665-1.772 1.827-1.827z" fill-rule="evenodd"/>
 <path d="m227.847,53.338c2.344-.193 1.433,3.631-.457,3.197-.985-.978-.233-2.552.457-3.197z" fill-rule="evenodd"/>
 <path d="m230.131,55.622c.668.397 1.447.684 1.37,1.827-1.188.583-1.378,1.002-2.741.457-.216-1.434 1.23-1.207 1.371-2.284z" fill-rule="evenodd"/>
 <path d="m28.705,56.536c-.157,1.061-.296,2.14-1.827,1.827 .055-1.163.664-1.772 1.827-1.827z" fill-rule="evenodd"/>
 <path d="m233.328,57.906c.012,1.686-.204,3.145-1.826,3.197-.749-.977-.045-3.427 1.826-3.197z" fill-rule="evenodd"/>
 <path d="m233.785,61.103c2.089-.4 1.829,3.606-.457,2.74-1.002-.96-.094-2.03.457-2.74z" fill-rule="evenodd"/>
 <path d="m235.612,63.843c2.104-.432 1.932,4.131-.457,3.197-1.265-1.257.41-1.907.457-3.197z" fill-rule="evenodd"/>
 <path d="m238.809,67.498c.104,1.626-.657,2.388-2.284,2.284-.323-1.847.438-2.608 2.284-2.284z" fill-rule="evenodd"/>
 <path d="m241.093,70.695v1.37c-.53.383-1.225.603-2.284.457-1.096-1.523.901-2.966 2.284-1.827z" fill-rule="evenodd"/>
 <path d="m242.463,73.435c.361,1.58-.508,1.928-.914,2.741-2.292-.412-2.139-3.259.914-2.741z" fill-rule="evenodd"/>
 <path d="m244.291,76.632c.323,1.846-.438,2.607-2.284,2.284 .058-.819-.56-.963-.457-1.827 .539-.526 1.615-.517 2.741-.457z" fill-rule="evenodd"/>
 <path d="m243.833,79.373h1.37c.384.53.603,1.225.457,2.284-.819-.058-.964.559-1.827.457-.625-.585-.625-2.157 0-2.741z" fill-rule="evenodd"/>
 <path d="m118.228,81.657c-.091.679-2.988,1.833-2.741,0 .853-.894 1.673-.141 2.741,0z" fill-rule="evenodd"/>
 <path d="m138.781,82.113c1.648-.125 1.239,1.806 2.741,1.827-.972,2.26-2.925-.148-2.741-1.827z" fill-rule="evenodd"/>
 <path d="m160.249,82.57c1.213.004 2.608-.173 3.197.457-.111.661-3.76,1.062-3.197-.457z" fill-rule="evenodd"/>
 <path d="m245.661,83.027c1.246-.333.919.908 1.827.914-.061,1.462-1.036,2.009-2.741,1.827-.362-1.58.507-1.929.914-2.741z" fill-rule="evenodd"/>
 <path d="m246.117,87.138c3.995-1.898.841,4.781 0,0z" fill-rule="evenodd"/>
 <path d="m153.4 88.965c-2.882-0.75-1.594 2.669-4.11 2.284-0.372-2.062 3.213-4.475 4.11-2.284z" fill-rule="evenodd"/>
 <path d="m112.29,89.878c-.213-.975.652-.87 1.37-.913 1.491-.121 1.32,1.42 2.284,1.827 5.395.463-3.21.758-3.654-.914z" fill-rule="evenodd"/>
 <path d="m108.179,89.421c1.396-.33 1.665.467 2.741.457-.008.698-3.385,1.001-2.741-.457z" fill-rule="evenodd"/>
 <path d="m248.858,89.421c.368.393 1.251.271 1.37.914-.652,1.022-.647,2.702-2.74,2.284 .118-1.404.99-2.055 1.37-3.198z" fill-rule="evenodd"/>
 <path d="m251.6 95.816c-5.167 3.243-1.426-5.05 0 0z" fill-rule="evenodd"/>
 <path d="m251.598,96.729c1.675.321.71,2.625-.457,2.74-1.162-.056-1.771-.665-1.827-1.827 .277-.788 2.167.036 2.284-.913z" fill-rule="evenodd"/>
 <path d="m7.694,97.643c1.195-.129 1.965.167 1.827,1.37-.855.897-2.2.264-1.827-1.37z" fill-rule="evenodd"/>
 <path d="m149.287,100.383c-7.403.865-14.538-.657-21.468-.457-4.18.121-8.479,2.103-11.875-.457 7.966.041 14.584-.61 21.01-.457 2.942.07 6.765-.347 10.049,0 .49.053 2.194.092 2.284,1.371z" fill-rule="evenodd"/>
 <path d="m251.141,100.383c.679.54 2.041.396 1.827,1.827-.869.196-1.147.984-2.283.914-1.003-.961-.095-2.031.456-2.741z" fill-rule="evenodd"/>
 <path d="m9.064,102.667c.446,1.84-2.73,1.84-2.284,0 .87-.856 1.148-.05 2.284,0z" fill-rule="evenodd"/>
 <path d="m155.224,102.21c.627,1.041-1.178,1.717 0,1.827-.117,1.069-2.007.263-2.284,0 .086-1.285.795-1.946 2.284-1.827z" fill-rule="evenodd"/>
 <path d="m253.882,104.494c.058.819-.56.963-.457,1.827h-2.284c-.365-1.895 1.758-2.675 2.741-1.827z" fill-rule="evenodd"/>
 <path d="m253.882,107.234c.06,1.126.068,2.201-.457,2.741-1.162-.056-1.771-.665-1.827-1.827 .87-.196 1.148-.984 2.284-.914z" fill-rule="evenodd"/>
 <path d="m5.867,109.975c1.059-.146 1.753.073 2.284.457-.242.368-.477.742-.457,1.371-1.531.313-1.67-.767-1.827-1.828z" fill-rule="evenodd"/>
 <path d="m254.338,110.432c.962,1.191.662,4.044-1.827,3.197-.011-1.686.205-3.145 1.827-3.197z" fill-rule="evenodd"/>
 <path d="m7.694,114.086c.102,2.305-2.373,1.032-3.197.457 .416-1.735 1.836-.335 3.197-.457z" fill-rule="evenodd"/>
 <path d="m255.708,115c.119,1.489-.542,2.198-1.826,2.284-.203-.407-.401-.817-.914-.914 .415-.956 1.348-1.393 2.74-1.37z" fill-rule="evenodd"/>
 <path d="m4.497 116.83h1.827c0.533 1.586-2.552 2.124-1.827 0z" fill-rule="evenodd"/>
 <path d="m256.62 118.65c-1e-3 2.627-1.807 2.184-3.197 1.37-0.087-1.615 2.172-2.26 3.197-1.37z" fill-rule="evenodd"/>
 <path d="m100.414,126.875c-1.167-2.733.402-4.061 0-7.765 .925,1.702.524,5.993 0,7.765z" fill-rule="evenodd"/>
 <path d="m257.08,121.851c-.443,2.024-2.745,2.821-3.654.914 .616-1.301 2.56-1.274 3.654-.914z" fill-rule="evenodd"/>
 <path d="m5.867,124.134c.138,1.204-.633,1.499-1.827,1.37 .031-1.23 1.044-2.195 1.827-1.37z" fill-rule="evenodd"/>
 <path d="m256.623,125.504c.27,1.944-.151,3.199-2.284,2.741 .059-.819-.559-.963-.456-1.827 .853-.364 1.671-.763 2.74-.914z" fill-rule="evenodd"/>
 <path d="m4.04,126.418h1.827c.721,1.787-1.186.946-1.371,1.827-.619-.141-.378-1.143-.456-1.827z" fill-rule="evenodd"/>
 <path d="m132.843,126.875c1.834,2.343.129,5.389.457,8.222-1.345-1.747-1.023-5.862-.457-8.222z" fill-rule="evenodd"/>
 <path d="m6.324,128.702c.597,1.967-1.296,1.445-1.827,2.284-1.629-.892-.361-2.715 1.827-2.284z" fill-rule="evenodd"/>
 <path d="m256.62 130.07c0.109 1.536-1.697 2.36-2.74 1.37-0.11-1.536 1.696-2.36 2.74-1.37z" fill-rule="evenodd"/>
 <path d="m111.83 130.07c1.979 1.522 1.871 5.132 2.74 7.765-1.654-1.848-1.922-5.081-2.74-7.765z" fill-rule="evenodd"/>
 <path d="m5.867,131.442v1.37c-.81-.104-2.288.46-1.827-.914 .406-.354 1.031-.49 1.827-.456z" fill-rule="evenodd"/>
 <path d="m136.954,132.812c2.146.798 2.176,4.623.914,6.395-1.789.267-1.166-1.879-2.284-2.284 1.208-1.469 1.026-2.56 1.37-4.111z" fill-rule="evenodd"/>
 <path d="m256.623,132.812c.183,1.705-.365,2.68-1.827,2.74-.194-.871-1.305-.826-.913-2.283 1.075.01 1.344-.787 2.74-.457z" fill-rule="evenodd"/>
 <path d="m6.324,134.64c.333,1.246-.908.919-.914,1.827-1.053.14-.507-1.319-1.37-1.37 .046-1.162 1.702-1.079 2.284-.457z" fill-rule="evenodd"/>
 <path d="m5.867,137.837v.913c-1.06.146-1.754-.073-2.284-.456 .149-.526 1.993-1.573 2.284-.457z" fill-rule="evenodd"/>
 <path d="m256.62 137.84c-0.496 1.033-1.866 2.567-3.197 1.37-0.181-1.711 2.076-2.355 3.197-1.37z" fill-rule="evenodd"/>
 <path d="m6.324,140.12c-.067.999-1.151.981-2.284.914-.32-1.581 1.601-1.638 2.284-.914z" fill-rule="evenodd"/>
 <path d="m257.08,141.491c-.011,1.41-3.429,2.257-3.197,0 .609-.652 2.586-.652 3.197,0z" fill-rule="evenodd"/>
 <path d="m4.954,141.947c.6.161.718.805 1.37.914-.3.612-.976.851-1.827.913-.194-.954.313-1.209.457-1.827z" fill-rule="evenodd"/>
 <path d="m120.97 144.69h-2.74c0.09-0.679 2.987-1.833 2.74 0z" fill-rule="evenodd"/>
 <path d="m256.623,144.688c-.242.367-.477.741-.457,1.37h-2.283c-.455-1.88 1.875-2.18 2.74-1.37z" fill-rule="evenodd"/>
 <path d="m4.954,144.688h1.827c-.242.367-.477.741-.457,1.37h-1.37v-1.37z" fill-rule="evenodd"/>
 <path d="m7.237,146.515v1.371c-.81-.104-2.288.46-1.827-.914 .407-.355 1.032-.492 1.827-.457z" fill-rule="evenodd"/>
 <path d="m256.166,147.429c-.01,1.41-3.429,2.257-3.197,0 1.249-.481 1.948-.481 3.197,0z" fill-rule="evenodd"/>
 <path d="m5.41,149.256h1.371v1.827c-1.204.137-1.499-.633-1.371-1.827z" fill-rule="evenodd"/>
 <path d="m255.252,151.083c-.324,1.198-.991,2.053-2.741,1.826-.437-2.355 1.371-2.463 2.741-1.826z" fill-rule="evenodd"/>
 <path d="m7.694,154.28h-1.827c-.409-2.126 2.421-2.342 1.827,0z" fill-rule="evenodd"/>
 <path d="m253.425,154.28c1.73.374.702,3.016-.914,2.74-1.171-1.164.103-2.215.914-2.74z" fill-rule="evenodd"/>
 <path d="m6.324,155.65h1.827c.483,1.701-.962,1.474-1.37,2.283-.991.078-.207-1.62-.457-2.283z" fill-rule="evenodd"/>
 <path d="m254.338,157.934c.623,2.05-1.839,2.218-2.74,1.37 .388-.983 1.125-1.616 2.74-1.37z" fill-rule="evenodd"/>
 <path d="m8.151,158.848c1.613.259.232,2.148-.914,2.283-.952-.91.337-1.6.914-2.283z" fill-rule="evenodd"/>
 <path d="m253.425,161.131c-.074.531.101.812.457.914-.197,1.333-2.061,2.373-3.197,1.37 .284-1.391 1.014-2.335 2.74-2.284z" fill-rule="evenodd"/>
 <path d="m9.978,162.501c-.253,1.083-1.766,1.896-2.741.914 .253-1.083 1.766-1.895 2.741-.914z" fill-rule="evenodd"/>
 <path d="m9.064,164.785c.367.241.741.477 1.37.457-.161,1.806-1.368,2.031-2.284.913 .162-.599.805-.718.914-1.37z" fill-rule="evenodd"/>
 <path d="m252.968,165.242c-.241.367-.477.741-.457,1.37h-2.283c.142-1.713 1.527-1.854 2.74-1.37z" fill-rule="evenodd"/>
 <path d="m11.348,167.982c.109,1.536-1.697,2.36-2.741,1.37-.071-1.498 1.866-2.191 2.741-1.37z" fill-rule="evenodd"/>
 <path d="m251.598,167.982c.674,1.444-2.625,2.196-2.284.457 .53-.383 1.225-.602 2.284-.457z" fill-rule="evenodd"/>
 <path d="m10.891,170.723c.669.397 1.448.684 1.371,1.827-.53.383-1.225.603-2.284.457-.392-1.458.719-1.413.913-2.284z" fill-rule="evenodd"/>
 <path d="m139.7 172.09c-0.999 1.589-3.24 1.937-5.481 2.284 0.789-1.799 3.356-1.82 5.481-2.284z" fill-rule="evenodd"/>
 <path d="m11.805,173.92c1.462.061 2.01,1.035 1.827,2.74-1.291-.377-1.183.644-2.284.457-.652-.645.1-2.219.457-3.197z" fill-rule="evenodd"/>
 <path d="m104.068,176.204c1.837-.314 2.607.438 4.111.456-.344.608-4.465,1.146-4.111-.456z" fill-rule="evenodd"/>
 <path d="m15.002,178.944c.104,1.627-.657,2.388-2.284,2.283-.323-1.845.438-2.607 2.284-2.283z" fill-rule="evenodd"/>
 <path d="m145.632,180.771c-.364,1.006-.917,1.823-2.284,1.827 .158-1.212 1.199-1.541 2.284-1.827z" fill-rule="evenodd"/>
 <path d="m101.784,181.685c1.602.375-.373,3.062-1.37,3.654-.466-2.141.752-2.598 1.37-3.654z" fill-rule="evenodd"/>
 <path d="m103.611,182.142c2.796.628.234,3.777.914,6.395-2.185-1.241.378-4.39-.914-6.395z" fill-rule="evenodd"/>
 <path d="m147.92 182.14c-0.143 1.531-2.069 1.279-3.653 1.37 0.517-1.158 2.024-1.325 3.653-1.37z" fill-rule="evenodd"/>
 <path d="m14.545,182.599c2.711-.61 2.2,3.269-.457,2.283-.145-1.059.074-1.754.457-2.283z" fill-rule="evenodd"/>
 <path d="m105.895,183.055c1.832.064-.294,3.098.457,5.024-1.685-.396-.798-3.87-.457-5.024z" fill-rule="evenodd"/>
 <path d="m146.54 184.88c0.289-1.138 2.095-1.962 2.741-1.37 0.043 1.413-1.379 1.361-2.741 1.37z" fill-rule="evenodd"/>
 <path d="m103.611,183.512c-.632,1.195-.238,3.416-1.827,3.654 .044-1.784.33-3.325 1.827-3.654z" fill-rule="evenodd"/>
 <path d="m107.265,183.969c2.229.272-.038,2.664.457,4.11-1.036-.485-.174-2.871-.457-4.11z" fill-rule="evenodd"/>
 <path d="m141.522,185.339c.849,1.027-1.012,3.231-1.371,4.567 .398.949 2.022-.675 1.827-1.827 1.259,1.726-.832,3.816-2.74,2.74 .565-2.022 1.349-3.826 2.284-5.48z" fill-rule="evenodd"/>
 <path d="m153.854,185.796c.247,2.241-3.019,1.241-4.111.913 .991-.684 2.571-.778 4.111-.913z" fill-rule="evenodd"/>
 <path d="m17.743,186.252c-.061,1.462-1.036,2.01-2.741,1.827v-1.37c.54-.526 1.615-.517 2.741-.457z" fill-rule="evenodd"/>
 <path d="m124.622,188.536c-.682.535-.538,1.897-1.827,1.827-.417-1.753.746-2.916 1.827-1.827z" fill-rule="evenodd"/>
 <path d="m17.286,188.993c2.062-.346 1.711,3.051-.457,2.283-.146-1.059.073-1.754.457-2.283z" fill-rule="evenodd"/>
 <path d="m20.026,192.19c.119,1.488-.542,2.198-1.827,2.283-1.047-1.473.396-3.471 1.827-2.283z" fill-rule="evenodd"/>
 <path d="m20.483,194.931h1.827c.139,1.966.032,3.686-1.827,3.653-.596-1.436-.318-1.927 0-3.653z" fill-rule="evenodd"/>
 <path d="m22.767,199.041c.955-.193 1.209.313 1.827.457 .597,1.967-1.296,1.444-1.827,2.283-1.017-.191-.358-2.423 0-2.74z" fill-rule="evenodd"/>
 <path d="m158.878,200.411c.076.991-1.62.207-2.284.457 .34,1.03 2.562.179 3.654.457-.688,1.199-3.801,1.69-5.024.913 1.579-.984.114-.737-.914-1.37 1.07-.572 3.789-1.007 4.568-.457z" fill-rule="evenodd"/>
 <path d="m106.809,201.781c1.284-.065 1.317,1.119 1.37,2.284-1.386.168-.948-1.488-1.37-2.284z" fill-rule="evenodd"/>
 <path d="m115.487,202.238c-.142,2.248-1.528.605-2.74,1.37-.061-2.274 1.194-1.498 2.74-1.37z" fill-rule="evenodd"/>
 <path d="m25.05,202.695c.738-.129.787.432 1.371.457 .138,1.203-.633,1.499-1.827,1.37-.194-.955.313-1.21.456-1.827z" fill-rule="evenodd"/>
 <path d="m199.072,203.608c1.726.708-.372,2.588 2.284,1.37-.73,2.722-3.364.87-5.024,2.284 .14-1.99 1.654-2.609 2.74-3.654z" fill-rule="evenodd"/>
 <path d="m27.334,204.979c1.873-.533 1.835,3.176.457,3.197-1.91-.068-1.428-2.542-.457-3.197z" fill-rule="evenodd"/>
 <path d="m184,207.72c1.835.608.159,3.596-1.827,3.197 .512-1.162 1.121-2.228 1.827-3.197z" fill-rule="evenodd"/>
 <path d="m126.906,208.633c.074-.535.833-.385 1.37-.457 .364.854.763,1.673.914,2.741-2.328.805-.628-2.417-2.284-2.284z" fill-rule="evenodd"/>
 <path d="m30.532,208.633c.6.161.718.805 1.37.914-.202,1.32-.963,2.082-2.284,2.283-.297-1.667.308-2.433.914-3.197z" fill-rule="evenodd"/>
 <path d="m31.902,211.373c1.246-.332.919.908 1.827.914-.515.854-.54,2.2-2.284,1.827-1.003-.961-.094-2.031.457-2.741z" fill-rule="evenodd"/>
 <path d="m194.5 213.66c-1.047 1.389-2.222 2.65-3.197 4.11-1.666-0.907 1.318-3.835 3.197-4.11z" fill-rule="evenodd"/>
 <path d="m36.469,215.027c-.293,1.381-.714,2.636-2.284,2.74-.162-.6-.804-.718-.914-1.37 .193-2.083 1.457-1.734 3.198-1.37z" fill-rule="evenodd"/>
 <path d="m183.542,215.94c-.901.773-.713,2.637-2.74,2.284 .759-.915 1.227-2.122 2.74-2.284z" fill-rule="evenodd"/>
 <path d="m196.789,215.94c.185,2.317-1.084,3.18-1.827,4.568-1.561-.59-.245-4.726 1.827-4.568z" fill-rule="evenodd"/>
 <path d="m184.913,216.854c.119,1.489-.542,2.198-1.827,2.283 .257-1.112.391-2.348 1.827-2.283z" fill-rule="evenodd"/>
 <path d="m38.296,218.682c.212,1.43-.397,2.039-1.827,1.827-1.422-1.259.569-3.249 1.827-1.827z" fill-rule="evenodd"/>
 <path d="m197.702,218.682c.203,2.03-1.237,2.417-1.827,3.653-.943-.973.326-3.609 1.827-3.653z" fill-rule="evenodd"/>
 <path d="m133.3,219.138c-.53,1.602-3.264.999-5.024,1.371 .688-1.444 2.863-1.401 5.024-1.371z" fill-rule="evenodd"/>
 <path d="m162.532,219.138c1.604.202 1.938.964 1.37,2.284-.535-.073-.385-.833-.456-1.37-.88.186-.361,1.771-1.827,1.37-.34-1.406 1.254-.878.913-2.284z" fill-rule="evenodd"/>
 <path d="m198.62 220.05c2.37 0.949-1.051 3.331-1.37 4.567-1.45-1.629 1.547-2.695 1.37-4.567z" fill-rule="evenodd"/>
 <path d="m134.67,220.509c1.028-.215 1.408,2.479.457,2.74-1.836.266.227-1.352-.457-2.74z" fill-rule="evenodd"/>
 <path d="m39.209,220.965h2.284c.269,1.64-.531,2.21-.914,3.197-1.524-.392-1.954-1.879-1.37-3.197z" fill-rule="evenodd"/>
 <path d="m187.197,220.965c2.088-.399 1.828,3.606-.457,2.741-1.003-.961-.095-2.031.457-2.741z" fill-rule="evenodd"/>
 <path d="m198.159,226.446c.103-1.877.967-2.991 1.827-4.111 2.108.689-.72,3.664-1.827,4.111z" fill-rule="evenodd"/>
 <path d="m166.64 223.25c1.396-1.218 4.42-0.177 4.11 1.827-1.694-0.285-2.674-1.284-4.11-1.827z" fill-rule="evenodd"/>
 <path d="m189.024,223.249c2.521-.1 5.983.829 5.023,2.74-1.581-1.007-4.234-.941-5.023-2.74z" fill-rule="evenodd"/>
 <path d="m200.9 223.71c2.541 1.248-1.228 3.478-1.37 5.023-1.288-1.616 1.431-3.118 1.37-5.023z" fill-rule="evenodd"/>
 <path d="m41.95,224.162c3.499-.406 1.757,3.558-.457,1.827-.057-.819.56-.963.457-1.827z" fill-rule="evenodd"/>
 <path d="m110.006,224.162c1.489-.118 2.198.543 2.284,1.827-1.134,1.08-2.866.182-2.284-1.827z" fill-rule="evenodd"/>
 <path d="m223.28,224.619c.359,1.759-2.187,1.759-1.827,0 .907-.761.581.041 1.827,0z" fill-rule="evenodd"/>
 <path d="m113.203,224.619c1.588.391 3.088.87 3.654,2.284-1.562-.38-2.126.06-4.11-.457-.194-.955.313-1.21.456-1.827z" fill-rule="evenodd"/>
 <path d="m125.992,224.619c1.424.873-1.063,1.635-1.371,2.284-1.423-.874 1.064-1.634 1.371-2.284z" fill-rule="evenodd"/>
 <path d="m46.518,226.903c.377,1.291-.644,1.183-.457,2.283-1.246.333-.919-.907-1.827-.913-.033-1.369 1.344-2.317 2.284-1.37z" fill-rule="evenodd"/>
 <path d="m193.134,228.273c-.101,1.727-1.436,2.218-1.827,3.653-1.423-.27-.245-4.035 1.827-3.653z" fill-rule="evenodd"/>
 <path d="m219.168,230.101c-1.194.128-1.964-.167-1.826-1.371 1.284-.467 1.946-.519 1.826,1.371z" fill-rule="evenodd"/>
 <path d="m49.715,229.644c.583,2.009-1.15,2.906-2.284,1.827 .086-1.285.795-1.947 2.284-1.827z" fill-rule="evenodd"/>
 <path d="m194.047,230.101c2.318.288-.248,2.094-.456,2.74-1.553-.864.783-1.602.456-2.74z" fill-rule="evenodd"/>
 <path d="m215.972,231.471c-.242.367-.477.741-.457,1.37-2.945.297-1.334-3.138.457-1.37z" fill-rule="evenodd"/>
 <path d="m52.456,231.927c.727,2.258-1.575,2.858-2.741,1.827v-1.37c.54-.526 1.615-.517 2.741-.457z" fill-rule="evenodd"/>
 <path d="m55.653,235.124c-1.188.583-1.377,1.003-2.741.457-.441-2.601 2.797-2.895 2.741-.457z" fill-rule="evenodd"/>
 <path d="m212.318,233.754c.129,1.194-.167,1.965-1.37,1.827-.242-.367-.477-.741-.457-1.37 .406-.355 1.031-.491 1.827-.457z" fill-rule="evenodd"/>
 <path d="m57.479,236.495c-.056,1.162-.665,1.771-1.827,1.826-.936-1.373.56-2.869 1.827-1.826z" fill-rule="evenodd"/>
 <path d="m59.307,237.408c1.427-.209 1.46.976 1.37,2.283-.819-.058-.963.56-1.827.457-.573-1.39-.349-1.776.457-2.74z" fill-rule="evenodd"/>
 <path d="m118.684,239.691c1.539.288 1.19,2.465 1.37,4.111-1.834.009-1.269-2.384-1.37-4.111z" fill-rule="evenodd"/>
 <path d="m203.183,239.691c.996-.082 1.453.374 1.37,1.371-.819-.059-.964.559-1.827.456-.193-.954.313-1.208.457-1.827z" fill-rule="evenodd"/>
 <path d="m63.417,240.148c.819-.058.963.56 1.827.457 .06,1.583-.394,2.651-2.284,2.283-.572-1.389-.348-1.775.457-2.74z" fill-rule="evenodd"/>
 <path d="m160.7 240.6c1.404-0.699 1.404 2.982 0 2.283v-2.283z" fill-rule="evenodd"/>
 <path d="m200.899,242.433c.212,1.43-.397,2.039-1.827,1.827-.212-1.431.397-2.039 1.827-1.827z" fill-rule="evenodd"/>
 <path d="m67.985 245.17c-4.457-0.788 1.987-4.014 0 0z" fill-rule="evenodd"/>
 <path d="m196.789,243.803c.993.405 1.395,2.55-.457,2.283-.992-.95.055-1.476.457-2.283z" fill-rule="evenodd"/>
 <path d="m70.269,245.173h2.284c.292,1.661-.946,1.795-2.284,1.827v-1.827z" fill-rule="evenodd"/>
 <path d="m191.764,246.086c1.489-.118 2.198.543 2.283,1.827-1.101-.187-.992.834-2.283.457-.586-.599-.586-1.683 0-2.284z" fill-rule="evenodd"/>
 <path d="m75.75,247.913c.126,2.104-1.326,2.645-2.284,1.37-.033-1.368 1.344-2.317 2.284-1.37z" fill-rule="evenodd"/>
 <path d="m190.85,248.37c.43,1.856-2.473,1.583-3.197.913 .67-1.72 1.211-.923 3.197-.913z" fill-rule="evenodd"/>
 <path d="m80.317,249.283v1.371c-.53.383-1.224.602-2.284.456-1.096-1.522.902-2.964 2.284-1.827z" fill-rule="evenodd"/>
 <path d="m186.283,250.654c.446,1.839-2.729,1.839-2.283,0 .869-.856 1.147-.05 2.283,0z" fill-rule="evenodd"/>
 <path d="m83.514,251.567c-.241.367-.476.741-.457,1.37-3.793.272-1.268-3.835.457-1.37z" fill-rule="evenodd"/>
 <path d="m183.542,251.567c.647,2.068-3.089,2.597-2.74.457 1.076.01 1.345-.787 2.74-.457z" fill-rule="evenodd"/>
 <path d="m85.798,252.024c.8.417 1.587.849 1.37,2.283-.53.384-1.225.603-2.284.457-.849-1.603.347-1.501.914-2.74z" fill-rule="evenodd"/>
 <path d="m179.43 253.4c-0.061 1.462-1.036 2.01-2.741 1.827-0.171-2.09 1.458-2.376 2.741-1.827z" fill-rule="evenodd"/>
 <path d="m90.822,253.852c-.468,1.054-.614,2.431-2.284,2.283-1.208-1.653.712-3.573 2.284-2.283z" fill-rule="evenodd"/>
 <path d="m175.321,254.308c.342,1.713-.515,2.226-1.827,2.284-1.167-1.222.097-2.586 1.827-2.284z" fill-rule="evenodd"/>
 <path d="m93.106,254.765c.607.459 1.7.432 1.827,1.37 .4,1.466-1.185.947-1.37,1.827-1.61-.368-1.622-2.349-.457-3.197z" fill-rule="evenodd"/>
 <path d="m96.76,255.678c1.327.009 1.08,2.582.457,3.197-1.699-.708-2.212-2.214-.457-3.197z" fill-rule="evenodd"/>
 <path d="m165.729,256.135h1.827v1.827c-1.43.212-2.039-.398-1.827-1.827z" fill-rule="evenodd"/>
 <path d="m100.414,256.592c1.291-.378 1.183.644 2.284.456 .377,1.291-.644,1.184-.457,2.284-1.576.054-2.123-.921-1.827-2.74z" fill-rule="evenodd"/>
 <path d="m104.525,257.505h2.74c-.405.812-1.275,1.161-.913,2.74h-1.827c-.042-1.706-.512-1.302 0-2.74z" fill-rule="evenodd"/>
 <path d="m108.636,258.419c2.088-.4 1.829,3.605-.457,2.74-.573-1.39-.349-1.776.457-2.74z" fill-rule="evenodd"/>
 <path d="m158.421,258.875c.613.301.851.977.913,1.827-1.194.129-1.965-.167-1.827-1.37 .532.074.814-.101.914-.457z" fill-rule="evenodd"/>
 <path d="m114.573,259.332c.191,1.562-.138,2.603-1.827,2.284-.574-1.303-.358-2.615 1.827-2.284z" fill-rule="evenodd"/>
 <path d="m130.56,259.789c.367.241.742.477 1.37.456-.081,1.442-.321,2.725-1.827,2.741-.986-.978-.234-2.551.457-3.197z" fill-rule="evenodd"/>
 <path d="m145.63 260.24c-1.064 3.892-3.696-2.162 0 0z" fill-rule="evenodd"/>
 <path d="m151.11 261.62h-1.826c-0.41-2.126 2.42-2.342 1.826 0z" fill-rule="evenodd"/>
 <path d="m116.857,260.245h1.371v1.827c-1.525.459-1.499-.634-1.371-1.827z" fill-rule="evenodd"/>
 <path d="m138.781,260.245c1.162.057 1.771.665 1.827,1.827-1.028,1.834-3.136-.274-1.827-1.827z" fill-rule="evenodd"/>
 <path d="m121.424,260.702c1.285.086 1.946.795 1.827,2.284-.531-.074-.812.101-.914.456-.968-.366-1.78-1.88-.913-2.74z" fill-rule="evenodd"/>
 <path d="m134.67,260.702c.737-.129.786.432 1.37.457 .138,1.203-.633,1.499-1.827,1.37-.193-.955.314-1.209.457-1.827z" fill-rule="evenodd"/>
 <path d="m127.362,261.159c.129,1.194-.167,1.965-1.37,1.827-.242-.367-.477-.741-.457-1.37 .407-.355 1.032-.491 1.827-.457z" fill-rule="evenodd"/>
 <path d="m99.044,14.515c-3.335-1.282-4.723,1.664-9.135,2.284 .011-2.121 2.601-1.663 4.111-2.284 1.276-1.264 4.903-3.784 5.024,0z" fill-rule="evenodd"/>
 <path d="m219.625,215.94c-3.203.805-.495,2.142-2.74,3.654-26.108,24.589-60.219,39.184-105.052,33.343-21.522-2.804-41.162-14.503-58.464-27.861-.48-2.286-1.772-2.151-3.654-3.654-10.015-9.871-18.723-21.662-25.578-36.083-9.269-19.499-15.249-46.263-10.049-74.45 2.576-13.96 7.707-26.315 13.703-37.454 9.254-17.19 22.791-32.281 39.737-42.478 8.417-5.065 17.733-9.876 26.948-12.789 8.704-2.751 20.36-5.132 30.145-5.938 4.518-.372 9.856-.309 14.159,0 41.463,2.97 76.165,25.547 94.091,55.723 4.418,7.438 8.532,14.125 11.419,22.381 2.866,8.2 4.84,16.907 6.395,26.948 2.829,18.282.314,38.903-5.481,57.094-2.53,7.94-7.21,15.505-11.419,22.381-4.167,6.808-8.714,13.37-14.16,19.183zm-74.45-182.242c-9.411-10.379-32.097-4.37-33.799,7.765 1.584-.367 1.756.68 3.197.457 1.008-1.964-2.94-1.265-1.37-2.284 1.101-.187.993.834 2.284.457 2.395-9.791 21.044-12.392 26.948-4.11 1.559,4.666 1.747,11.301-2.74,13.246-.314,1.837.438,2.607.456,4.111 1.406.34.878-1.254 2.284-.914 .333-2.001-.907.368-.913-.914 5.193-4.155 5.965-10.847 3.653-17.814zm-30.602,17.357v-1.827c1.292-.078 3.133.393 3.197-.914h-3.654c-.996-1.579-1.757-3.213-.914-5.481-1.101.187-.993-.834-2.284-.457-2.712,6.219 2.54,9.913 5.938,12.789 .24-2.219-1.942-2.016-1.827-4.11 .996-.292 1.453,1.294 1.37-.457-.447-1.401-1.217.525-1.826.457zm6.851-4.111c-.6.776-2.742-.451-2.74,1.827 3.41,1.129 6.061.274 8.678,2.284-.333-1.247.908-.919.914-1.827-2-2.063-5.931.547-6.852-2.284zm-1.37,10.505c3.109-.802 8.263-3.874 5.024-6.851-2.03-.203-2.417,1.237-3.654,1.827 .341-1.863-2.958-.087-2.284-2.284 .354-.103.901-.013.914-.457h-1.827c-.875,2.982.229,5.19 1.827,7.765zm7.765-5.938c.004,1.975 2.154,1.804 2.741,3.197-.65.454-6.008.438-5.024,2.284 1.246-.449 4.179-1.58 5.024-.914-.311.938-4.119.712-3.197,1.37 4.827-1.049 10.014.676 10.048-5.481-.354-.102-.9-.012-.913-.457-1.927,2.614-6.958.702-8.679.001zm10.506,2.74c2.39-.171.762-4.493-.914-2.74 1.167.051.907,1.53.914,2.74zm24.207,12.333c-3.982,1.8-8.751.654-13.245.457-21.814-.959-41.245-.139-59.834-.914-6.293,2.083-21.939-1.233-26.035,4.568 23.009-1.994 47.771-2.52 73.08-1.371 16.246.738 32.899-.194 47.502.914 2.423.184 5.019,1.908 7.308,0-6.811-4-20.036-1.585-28.776-3.654zm-37.91,5.024c-11.543-.524-24.008-1.625-33.342-.914-.554.042-1.025.623-1.371.914 .206,1.271-2.489-.358-2.284.913 20.232.493 40.43.932 61.205.457 9.227-.211 17.504,1.012 26.948.914 2.278-.024 5.863,1.068 6.852-1.371-18.204-1.19-39.206-.059-58.008-.913zm-52.526.913c3.279-.117 9.688,1.107 11.875-1.37-3.997.418-9.896-1.066-11.875,1.37zm8.678,2.284c2.703,1.865 6.387,2.748 7.765,5.938 5.942-1.124 10.354,3.821 15.073.914-3.107.062-5.376-.714-7.308-1.827 .538-.071 1.297.079 1.371-.457-2.897-.024-6.721-.774-8.678-.457 .846-2.152 3.355-.425 5.024-.457 2.595-.05 5.358-.865 8.222-.457-.732,1.272 1.973,1.263 1.827.457-2.599-.586 3.891-1.689 4.568-.457-.684.078-1.686-.163-1.827.457 3.891-.01 4.89-2.503 8.678-.914 .075,1.293-2.815-.379-2.74.914 2.396.813 3.992.195 6.394-.457 1.707-.488 1.302,1.134 2.741.914 .955-.263 1.304-1.132 2.74-.914 3.696,2.031 10.263-2.326 12.789,1.371-1.1-.143-2.212,1.993-3.197.457 .538-.071 1.297.079 1.37-.457-2.571.592-6.039-1.05-8.221.913 10.452-.855 11.576,12.218 1.37,12.333 6.475.081 10.396-2.393 15.073-4.111 1.743-4.908 9.213-8.088 15.529-5.481-.103.864.515,1.008.457,1.827-1.292.078-3.134-.393-3.197.914 .582.636 2.237.198 2.284,1.37-1.038.333-3.563-.823-3.197.914 1.546.005 4.978.7 4.11,2.74-1.914.087-1.412-2.242-3.654-1.827 .698,1.929 2.645,3.873 4.567,3.197 .779-4.854 3.994-7.273 6.395-10.505-.316-.901-2.548.112-2.74-.914 2.21-.292 3.23.604 4.567,0-1.252-1.913-7.265-.755-8.678-.457 .316.901 2.548-.112 2.74.914-3.452,1.264-5.397-1.704-8.222-2.284-5.027-1.032-10.591,1.694-16.442-.457 1.347-1.799 3.255-.323 5.023,0 8.129-1.317 17.458-.696 27.405.457 .918-2.279 4.679-1.715 5.938-3.654-19.52.289-48.54-1.338-67.599-.457-.523,1.437.717,1.11.914,1.827-7.226-.384-16.611,2.709-21.01-1.37 1.478-.197 3.95.601 4.11-.914-4.027.516-10.428-.923-12.334.457zm26.035.457c-3.69.94-6.354-1.551-8.678-.457 3.159.773 5.873,2.732 8.678.457zm-11.876,1.37c.139-1.205-.954-1.178-1.827-1.37-.459,1.525.634,1.498 1.827,1.37zm5.025,4.111c.803-.263 2.684.552 2.74-.457h-1.37c.655-.668.35-1.447-.914-1.37-.143.618-.65.873-.456,1.827zm10.961,14.159c-.557.052-1.082.137-.914.914 13.477-2.238 28.114,1.604 42.934-1.827 1.149,1.439 2.875,2.302 5.481,2.284 .206-1.316 1.616-1.429 1.37-3.197-3.08.518-3.92-3.215-6.395-1.827-.71,1.624 1.552.275 1.37,1.37-1.312.095-2.32-.116-2.74-.914 .178-.652.548-.771 0-1.37 .54-.526 1.614-.517 2.74-.457-2.243-2.773.863-4.643 1.827-6.851-8.039-.883-9.404,4.907-13.702,7.765-5.748,1.504-12.409,2.621-18.727,2.284-.601-2.307-4.72-2.149-5.024-5.481s3.056-5.942 6.852-6.851c-1.311-3.206-4.977,1.009-6.852-1.827-4.939,2.462-10.906-.444-15.529,1.827 2.808-.214 2.153.96 3.197,1.827 4.739.571 8.833-.186 10.962,2.284-2.649-.299-7.451-2.615-9.135-.914 1.907-.081 2.238,1.416 3.654,1.827 .14,1.053-1.319.507-1.37,1.37 1.891-.063 3.528.126 4.567.914-2.996,1.324-7.314-1.311-9.592.914 .54.221 1.036.487 1.37.913-.431,2.157-3.374,1.803-4.567,3.197 3.05.3 7.302-.603 9.592.457-3.815-.448-9.517.991-11.875-.914 .102-1.421 2.273-.772 3.654-.914-.397-2.432-5.331-1.44-5.481.457-.96-1.407 1.757-2.294 1.371-4.568 .152-1.401-2.599-2.232-.914-3.654 2.304-.172.959,3.304 2.74,3.654 1.675-.751 6.045.823 7.765-.914-1.772-1.121-6.062.277-7.765-.913 1.389-.458.583-.753 0-1.371 1.936-.348 5.409.842 5.938-.914-4.042.44-7.528-.967-10.048.457-.611-1.669-5.659-2.75-6.852-.914 3.906,5.16 7.642,12.127 7.308,20.097 3.578-2.535 7.729,2.924 9.135-.457-.946-.271-3,.564-3.197-.457 2.492-.419 7.842.632 5.024-.914 2.639.855 4.864.104 6.395,1.37-.941.276-3.173-.737-2.74.914 2.249-.803.26,1.609.913,3.197 2.245-.371.739-1.669 1.371-3.654 2.644-1.929 6.045-.232 6.851,2.284 4.492-4.915 14.407-3.377 16.899,2.74-.817,1.314-.634,3.628-1.37,5.024 1.562-.714 2.126-1.064 4.111-.457-.161-2.654-.491-3.955-.457-8.222-.626-.896-2.754-.291-2.74-1.827 6.979-.273 5.189,8.203 5.023,12.789 2.296-.707 2.451,3.8.914,4.111 .84-.833.242-2.561-.457-3.197-.005,1.865-1.274,6.696 0,7.765 1.319-.203-.406-3.451.914-3.654 .602,1.377.045,3.913.913,5.024 .852-4.426 4.829-7.822 3.654-12.789 1.317,1.325 1.079-1.239 2.283-1.371-1.219-1.609.123-3.259-1.37-4.111-.707,2.211 1.824,4.844-.913,5.024-1.229-1.696 1.987-7.315-2.284-6.851-.572,3.831.745,11.552 0,14.159-.91-4.27-1.772-9.441-.913-14.159-.664-.25-2.361.534-2.284-.457 2.354-1.007 4.015-.15 6.395-1.37 .855,1.161 2.574,3.254 1.37,5.024 2.297.47.988-2.666 2.74-2.741 1.1.463 1.55,4.408 0,5.481 .341-1.001-1.253-2.12-.913-.457 2.444,7.905 1.897,22.599.457,31.059 3.491-.479 3.719-5.986 3.653-9.592-.143-8.006-2.057-18.741 1.827-24.664 1.103-1.681 3.002-1.438 3.654-3.654-3.842-.796-3.443,2.646-6.395,2.741-.134-2.417.793-3.775.913-5.938-2.658.341-3.565-.323-4.567,1.371-1.103-.876-2.976-.983-3.197-2.741 3.513-.853 8.017,2.048 8.679-1.37-.128-1.169-5.403-1.28-4.567-.457 1.211.007 2.689-.253 2.74.913-3.51.251-4.559-1.909-8.679-.913-.077-.684.164-1.686-.456-1.827-3.862,2.685-8.854-1.226-13.703,1.37-3.484-1.947-9.266.32-12.332-1.37-1.534-.074-2.223,1.625-4.11,1.37-2.214-.299-.243-.435-2.284,0-4.045.862-8.841-1.574-11.419.457 3.98,1.914 7.84-.031 11.875,1.827-5.584,1.869-11.159.772-16.443-.914 1.015-.355 1.781-.959 3.197-.913 1.547-1.284-3.989.67-3.197-1.371 2.378,1.069 2.56-.566 2.284-1.37 3.545.207 6.035-1.193 9.593.005zm-8.221,1.37c1.727-.101 4.119.464 4.111-1.37-1.249.578-2.931.723-4.111,1.37zm32.429-10.048c-.191-4.144-8.78-6.718-11.876-3.654 .403,1.119 1.369,1.676.914,3.654 1.138.841 3.638.321 4.111,1.827-2.187.79-3.628-1.513-4.567-.457 .819,1.008 2.539,1.115 3.654,1.827-3.186,1.08-5.202-2.21-5.938-5.024-5.115,8.775 14.033,9.019 13.702,1.827zm-34.713,3.197c1.036,1.005 4.557.621 4.567-.914-1.389.439-4.631-.977-4.567.914zm-2.284,28.776c.026-.279.068-.541.457-.457-.06,8.326-1.377,11.397-.913,21.01 1.546.799-.278,2.932 2.74,2.741-1.048-2.781-.721-6.003-.457-9.136 .152-1.805-.866-4.382.913-5.024 1.43,4.09-3.225,14.493 3.654,14.16-.695-4.123.268-9.092-.914-13.246 1.315,1.358.793-1.144 2.284-.914-.063,6.419-.434,8.238 0,14.16 2.78-.346 4.657,1.245 5.024-1.371-.789-.732-2.824-.221-3.197-1.37 .447-2.141 2.62-2.556 3.197-4.567-1.738-2.137-1.494-2.363-.914-5.481-1.143.057-1.43.872-1.827-.457 .098-1.8 1.762-7.005-.914-7.308 .124,1.798-.176,3.174-1.37,3.654-1.006-.364-1.824-.917-1.827-2.284 1.291-.377 1.184.644 2.284.457-2.402-1.666-.133-2.939-2.284-4.111 .426-.487 1.685-.142 1.371-1.37-1.629-.387.942-8.17-2.741-10.049-.515,2.378-1.58,4.206-2.284,6.395 .032-4.757-.798-10.149-6.395-10.505 2.541,3.674 5.175,9.394 4.113,15.073zm3.198-10.506c.179-1.801 2.503-1.455 2.74-3.197-.794-.75-3.828-1.622-5.024-.457 1.047.932.962,2.997 2.284,3.654zm24.207-3.197c2.143.75 2.599,3.187 5.024,3.654 .609-1.826 2.647-2.225 3.654-3.654-2.774.356-6.385-1.967-8.678,0zm-19.64.457c.864.811 3.017.333 4.567.457-.464-2.655-3.407-.276-4.567-.457zm9.592,7.308c1.994-.319 2.031,1.319 3.654,1.37-.349-3.874.641-3.6 1.371-6.395-.356-.101-.531-.382-.457-.913-.946-.272-3,.564-3.197-.457h2.741c-.776-1.856-3.456-.503-.457-1.827-5.239-1.279-3.315,4.604-3.655,8.222zm15.073,4.111c-.427,8.101-.907,18.201 0,25.578h18.27c-.077-5.032-2.054-11.703-1.37-14.616 2.03,4.792 2.918,10.486 2.283,14.616h2.741c-.351-2.324 1.396-5.696 1.37-9.135-.972-1.313-3.199-3.289-2.284-5.024-2.748,1.391-2.025-3.444-2.74-5.481-1.871,1.326-1.722,4.673-3.654,5.938 2.034,2.67 1.073,10.797-2.283,12.789-1.625-3.848 2.039-6.115 2.283-9.592-1.158-1.277-1.252-3.62-1.827-5.481-1.854,1.357-2.26,3.879-3.197,5.024-.211-1.463-1.738-1.61-1.826-3.197 2.665-1.75 2.422-6.408 3.653-9.591-2.606.171-.885-3.987-2.74-4.568-1.622.358-.662,3.296-2.284,3.654 .083-.997-.373-1.453-1.37-1.37-.821,3.549 1.449,8.395-1.37,10.505-.79-.732-1.662-1.382-1.37-3.197 .186-.88 1.771-.361 1.37-1.827-1.14-6.621 3.171-7.791 3.197-13.246-2.197.371-1.166-2.487-2.74-2.74-3.818,2.083-3.819,5.404-4.112,10.961zm-22.838-9.136h2.74c.471-1.936-2.666-1.325-2.74,0zm-2.741.457c.684-.078 1.686.163 1.827-.457-.552-.096-.281-.507 0-.913h-1.827v1.37zm24.208,1.371c-1.718-1.834-3.781-3.7-6.852-1.827-.118,1.306-1.079,2.741-.914,5.481 .543,1.436 1.542,2.417 1.827,4.11-1.127,4.221 2.96,8.282 0,10.049-3.298-2.062-.175-7.955-1.827-11.875-2.176-.502-.628,2.721-2.284,2.74-.44-1.709-1.556-4.604-3.197-3.654 .832,3.222-.449,3.625-1.371,5.938 1.903,2.327.324,5.4 1.827,8.222 .051-1.167 1.529-.907 2.74-.914 .776,2.569-.351,5.236-1.37,7.308 1.44.844 2.492,2.076 2.741,4.11-.458-.001-.544.37-.914.457-4.316.417-2.193-7.188-1.37-10.505-3.21,1.214-4.735-1.527-7.308-2.284-.758,5.216 2.572,10.056.457,15.073 5.513.048 12.333-.043 18.27.456-.679-1.452-.177-4.086-1.37-5.024-.411,1.265.938,4.288-.914,4.111-.195-11.225-2.252-23.02-1.827-33.343 1.226,7.789 2.331,19.155 3.197,28.775 1.064-8.149.105-19.98.459-27.404zm-21.924-.457c.281.633 1.758.069 1.827.914-.684.078-1.686-.164-1.827.457 .589.629 1.984.452 3.197.457-.903-1.619-.595-.902 0-2.74-.815.553-2.657.081-3.197.912zm6.852.914c-.354.102-.901.012-.914.457 .279.026.541.068.457.457h.914c-.276-.941.737-3.173-.914-2.74-.917.93.202.894.457,1.826zm-6.852,1.826c-.308,1.648 3.857,1.154 3.654,0-.898-.906-2.608-.29-3.654,0zm6.395,3.197c.784-.738 1.135-1.91.914-3.654-.795-.034-1.42.102-1.827.457-.137.898.617.906.913,1.371-.807.654-2.7-.374-1.827.457 .931.134.896,1.235 1.827,1.369zm27.862,1.828c2.071,1.012 1.928-4.051.456-3.654 .714,2.14-1.459,2.597-.456,3.654zm-34.257-2.284c1.292-.078 3.134.393 3.197-.914-1.037.333-3.563-.822-3.197.914zm43.392,1.827c1.329,1.212-.871,2.757-.914,4.11 1.501,3.524 2.806,7.243 4.111,10.962 .485-5.525.302-14.311-1.37-17.813 .343,1.866-.974,2.072-1.827,2.741zm-44.305,0c1.794,1 5.078-1.355 7.308,0-1.331-1.84-5.498-1.76-7.308,0zm7.765,1.827c.166-1.536-1.979-.761-2.741-1.37-.642,2.012 1.503,1.237 2.741,1.37zm-7.765.457c1.482-1.346 4.071,1.255 4.11-1.371-1.726.101-4.118-.464-4.11,1.371zm.457,1.826c1.136-.539 3.561.212 3.654-1.37-1.535.141-3.96-.61-3.654,1.37zm3.197,4.568c.991-1.603.529-2.583.914-4.11h-1.827c1.001,1.818-.711,3.184.913,4.11zm30.145,3.197c1.325-.099 2.693-4.33 1.371-4.11 .03,1.857-1.448,2.205-1.371,4.11zm17.356,15.529c-3.093.204-6.12-.428-9.592-.456-16.034-.13-36.044.588-53.439-.914-.458-.001-.544.37-.914.457-.458-.001-.543.37-.914.457 .17,2.728 3.287.829 5.024.913 6.486.313 15.557.172 19.183.914-6.315.203-11.36.259-16.443,0-2.925-.149-6.415-.685-8.678.913 1.849.769 4.234.896 6.395.913 21.311.17 45.299-.015 66.229-.456 1.43-5.343-3.918-2.934-6.851-2.741zm-62.117,4.569v1.37c4.247,1.677 9.234.913 13.702.913 9.57,0 18.204.064 26.035,0 6.793-.056 14.009-.325 20.097-.457 2.004-.043 5.021,1.933 5.938-1.37-21.669-.306-46.34-.932-65.772-.456zm18.727,12.788c-.054-.787 3.573.924 4.111-.456-2.689-.911-4.024-.381-5.938-1.827 .774-1.541 3.178,1.382 3.197-.914-1.388-.286-3.934.585-4.567-.456 2.895.362.697-1.529 2.74-1.827-1.554.031-3.187.142-3.654-.913 2.067.296 2.072-.309 2.284-.914 2.614-.025 2.523,2.653 4.111,3.654-1.32-4.732 3.903-4.629 6.851-3.654 1.083,1.678.115,3.93 1.37,4.567-1-5.664 4.104-5.746 8.222-5.024 .608,1.067.776,2.574 1.37,3.654-.675-4.649 9.229-4.935 8.222-.913 1.888-2.075 5.455-4.521 7.765-.914 .584-.607 3.59-3.584 3.654-.456-1.916-2.266-2.32,1.802-4.111,1.826-.718.01-1.035-2.097-2.283-2.283-2.33-.349-3.802,2.134-5.024,5.48 1.139-.384 2.447-.598 4.11-.456 .696-1.132.938-2.717 2.284-3.197 1.355,1.161-1.164,2.228 0,3.197 3.492.143 2.443-4.257 6.395-3.654 .558-.69 1.81-3.021.913-3.654-15.479-.212-34.777.385-48.415,0-.976,1.138-1.003,2.857 0,4.111 .048-1.17.258-2.178.914-2.741 .664.25 2.361-.533 2.284.457-1.437-.219-1.786.65-2.741.914 .971,3.597 3.597,5.537 5.938,7.765-3.871-1.744-11.325-5.934-9.592-9.136 .152,1.065.468,1.968 1.37,2.284-.2-1.57.181-2.561.457-3.654-3.084.042-3.728-.315-6.395,0 2.967,10.538 17.074,12.307 27.861,12.332-.975-1.472 1.677-1.104 3.197-.913-1.56-3.191-4.979.784-7.765-1.37 1.162-.788 1.771.695 1.827-.914-2.134-.103-4.01-1.019-5.024.457 .761.609 2.907-.166 2.741,1.37-3.342-1.177-5.698-.655-8.679-1.828zm11.875-6.394c-.392,2.478-.506,3.779.914,5.938 1.371-.608 3.494-.465 5.48-.457 .518-1.376.378-2.8.457-5.48-1.773-1.68-4.796-1.248-6.851-.001zm8.221,5.481c2.295.533 4.142-1.006 5.481,0 .224-2.06 2.035-2.531 1.827-5.024-3.382-3.624-7.261,1.081-7.308,5.024zm-15.985-5.025c1.353-.624 1.989.268 4.11,0 .228-1.639-4.247-1.196-4.11,0zm4.567,1.827c-.54-2.729-3.621-.489-5.481-1.37-.137,2.42 3.587.98 5.481,1.37zm.456.458h-5.938c.312,1.977 4.979,1.669 5.938,0zm-4.567,2.74h5.481v-.913c-1.653.477-5.299-1.036-5.481.913zm14.616,2.284c1.076.445 2.897.147 2.74,1.826-.76.055-4.137-.249-2.74.457 3.724-.082 6.547-1.065 9.135-2.283-1.264.077-1.568-.702-.913-1.371-2.971,2.2-3.711,1.832-6.852.914 .843-.984 4.13.476 4.11-1.37-1.493.941-5.469-.599-5.48,1.827zm-1.827,3.653c-4.443.227-9.834-.717-12.333.457 6.288.475 13.207,1.228 18.27-.913-1.769-.384-3.798.348-5.937.456zm-18.726,6.395c.582.94.728,2.316 2.284,2.284 1.216-1.351-1.696-1.342-.914-3.654 .34-.957 3.177-3.506.914-4.11-.498,2.09-2.234,2.943-2.284,5.48zm4.11.457c-1.491-1.67.686-3.558 1.371-4.567-2.927-.839-4.596,6.102-1.371,4.567zm.914-2.284c.664.25 2.361-.533 2.284.457-1.067.141-1.887.895-2.74,0-.539,2.233 3.375,2.384 3.654,2.284-1.487-1.518.457-3.479.914-4.567-.618-.145-.873-.65-1.827-.457 1.509,3.02-2.61-.656-2.285,2.283zm10.961-2.284c-.284,1.241 2.066,2.139.914,2.74-1.217-.762-1.489-2.469-3.197-2.74-.197,1.021-2.251.185-3.197.457-.054,2.368 2.671-.875 2.741,1.37-2.022-.218-2.271.628-3.654,0-.671.664-.671,2.989 0,3.653 4.77.224 9.334-1.752 10.505-3.653 1.826-.152 2.535.813 4.567.456 .07-1.136-.718-1.413-.913-2.283-5.974,1.61-3.214-.048-7.766,0zm68.057,31.516c-6.21-9.93-19.215-13.062-30.146-18.271-2.755-4.938-12.653-6.245-20.098-7.765-2.628-.536-6.834-2.209-8.678-2.283-4.336-.175-7.952,3.855-12.789,4.567-4.059.598-6.792-.964-10.505.457 .7,1.736 4.696.176 5.938,1.37-.542,1.697-1.979-.336-2.741.913 .991-.077.207,1.62.457,2.284 3.79,3.22 11.389,1.52 15.529,1.37-1.88,1.088-7.497,2.055-4.567,1.827 3.455-.269 6.839-1.346 8.678-4.567 .919,2.243 1.662-1.629 3.197,0-.167,1.659-1.958,1.695-2.284,3.197 4.087-.28 6.108,1.504 8.222,3.197 1.445.074 1.526-1.215 3.197-.914-.473,1.917-1.812.322-2.284,1.827 2.634,2.336 8.195-.885 10.506,1.37-3.45,1.679-9.016-1.177-10.506.914 3.178,1.327 10.593-1.096 13.246,1.826-3.599-.239-7.274-1.659-9.592.914-.079,1.298 2.988-.553 2.284,1.37-.941.276-3.173-.737-2.741.913 3.189-.454 4.662.04 1.827,1.37 .664.25 2.361-.533 2.284.457-.483.331-3.48.407-2.284.914 1.038.332 3.563-.823 3.197.913h-4.11c-1.164,2.946-2.829,5.393-3.197,9.135 1.924-1.503 3.869-5.159 3.197-7.765 1.367-.899 4.619-1.381 5.48.457h-3.653c-.187,3.315-2.871,4.132-3.197,7.308-1.063-.293-2.431,2.391-.457,2.284 .862-.91 3.44-5.815 5.024-5.938-.543,1.436-1.542,2.416-1.827,4.11 2.448.057 2.936-2.87 3.197-3.654 1.179-.366 4.425-1.025 5.481,0-.737,1.091-4.024-.37-4.111,1.37 1.334,1.108 3.356-1.23 4.567,0-.09,1.433-2.987.058-2.74,1.827 1.746.645 3.326-1.192 4.11,0-.162,1.208-2.327.413-2.74,1.37 1.902,1.812 5.318-1.957 6.395.457-2.221-.395-2.347,1.308-4.567.914 .043,2.967-2.386,2.941-4.11,5.023 1.916.241 2.551-.798 4.11-.913 .652-4.87 3.717-2.991 6.395-4.567-.704,1.922 2.363.072 2.284,1.37-.922,1.515-1.936,2.938-2.741,4.567 1.769.923 3.135-2.174 3.197-3.197 1.738-.257 4.958-1.416 5.938-.913-.385.984-2.354.385-2.74,1.37h3.654c1.225-1.517 1.286-4.195 3.654-4.567-.943,2.291-2.069,2.85-2.741,4.567 .813.252 1.897.234 2.284.913-2.944-.276-4.502.872-6.852,0-.562,3.396-3.498,4.419-5.938,5.938 3.299.701 5.362-2.236 7.308-1.37-.739.783-2.868.177-2.74,1.827 1.57.2 2.561-.181 3.654-.457 .377-1.29-.644-1.183-.457-2.283 2.185-.1 1.64-2.928 4.11-2.74-.931,1.674-3.348,3.53-1.37,5.48-2.287,2.128-10.419.323-14.159,2.284 1.154,3.597-1.521,5.716 0,9.135 .969-.45-.979-2.875.457-3.654 .813.253 1.896.235 2.284.914-1.5,1.949-.434,1.261.456,1.37-.406,1.116-1.064,1.98-.913,3.654 2.588-.457.762-5.329 4.11-5.024-.2,1.794-2.831,3.542-1.827,5.024 1.488-2.167 1.753-5.556 5.024-5.938-2.493,2.988-4.896,5.678-3.197,9.592 3.45-1.27 1.188-8.252 4.567-9.592 .438.851-1.367,1.526 0,1.827 1.051-2.432.779-5.793 3.654-7.308-.316,3.337-.821,6.487-2.74,8.222 2.426-.462 1.776,1.009.913,1.826 2.843-.659 2.341-4.662 4.567-5.938-1.116-.932-.896-2.996.457-3.654 .409,1.937.326,2.327 1.37,4.111-3.052,1.124-6.051,5.92-4.11,9.135-1.728.661-.877-1.255-2.284-.913-.776,1.703.271.723.457,2.283-1.054.907-.508-.114-1.37-.456 .272.812-1.339,1.896 0,2.283 .2-1.552 2.017-.448.913.457 2.263-.174 1.958-2.914 3.654-3.654-1.759-2.392 1.268-8.223 3.654-7.765-1.062,2.288-3.387,3.312-3.654,6.395 3.812-.604 1.995-6.836 6.852-6.395 .594,1.134-1.341,1.896 0,2.284 .237-.577 1.113-2.774 1.826-1.371-3.136,1.959-2.409,6.085-5.48,7.309 .5,1.739-1.208,2.851.457,3.197 1.063-1.829 1.599-4.187 3.653-5.024-.176,1.499-1.336,2.014-1.827,3.197 6.215-2.464 11.022-6.334 15.073-10.962 .497,1.162-2.139,1.771 0,1.827 5.045-5.004 11.09-9.007 15.529-14.616-4.995-6.874-15.114-8.631-21.464-14.155zm-22.381,13.702c-2.46.667-3.34,2.792-5.024,3.654-.907.464-2.817-.615-2.74,1.37 4.803.542 6.188-2.336 7.764-5.024zm-9.135,7.765c.581-.636 2.237-.198 2.283-1.37-3.59-.673-6.943-1.582-9.135-3.654-2.083.201-3.374,1.193-5.024,1.827 .347,3.24-2.053,3.732-1.37,7.309 2.104-1.709 2.421-7.621 5.024-7.309-1.523,1.979-2.357,4.646-3.197,7.309 3.968.009 2.715-5.202 5.024-6.852 .295,1.817-1.209,1.836-.914,3.654 1.95-.334 1.751-2.817 3.197-3.654-.069,1.453-1.035,2.01-.913,3.654 2.984-.644-.42,2.455 1.37,3.197 1.25-.425 1.071-2.278 1.827-3.197-.161,1.619-.197,5.786-1.37,3.653-.69,1.569 1.279,2.48 2.283,3.654 .701-3.247.845-5.046.915-8.221zm-11.876-4.111h-1.37c-.253,1.573-1.211,2.443-2.284,3.197-.34-1.406 1.254-.878.914-2.284-2.107.763-4.055,2.093-4.111,3.654-.754-.007-.255-1.267-.913-1.37-.629.589-.452,1.983-.457,3.197 2.187,1.468 3.962,3.346 6.852,4.11-.125-1.549-1.784-1.565-1.827-3.197-1.167.24-1.599.606-2.284-.456v-2.284c1.539,1.581.82-1.116 2.284-.913 .25.663-.533,2.36.457,2.283 1.056-1.834 2.017-3.766 2.739-5.937zm-50.242-42.021c-4.701,1.028-7.472,6.974-5.938,10.506 1.582,3.643 8.729,3.374 11.875,5.024-.652-2.446-.432-6.019 1.37-7.309 .522,1.545-1.401,5.729 0,8.222 6.558-.314 10.973,1.512 15.53,3.197-.311-1.973-3.75-.818-3.654-3.197 2.861,1.402 5.988,2.538 10.505,2.284 1.393-1.23 1.647-3.354.457-5.024-2.366-1.289-6.959-.35-8.222-2.74-9.137.785-18.686-4.994-14.159-10.963-2.645.923-5.322-.533-7.764,0zm11.875,5.938c-.741-1.649.078-2.211-.457-3.654-1.067-.15-1.887-.549-2.74-.913 .274,2.314 1.138,4.038 3.197,4.567zm2.284.457c.406-1.666-.807-2.433 0-3.197-2.307-.64-2.717,3.934 0,3.197zm2.284,1.827c-.898-.203-2.825-1.694-3.654-.456 1.066.034 2.573,1.945 3.654.456zm17.813,6.851c.754-1.835 1.285-3.892 2.284-5.481-2.02.277-3.441,3.548-2.284,5.481zm3.654-5.481c-1.605,2.201-3.261,4.353-3.197,8.222 1.766-.88 1.802,1.164 3.197-.456 .25.663-.534,2.36.457,2.283 1.201-1.082.892-3.675 2.283-4.567 .167,3.114-3.217,6.848-1.37,8.678 1.729-3.447 2.079-8.273 4.11-11.418-1.378-1.363-3.314-2.167-5.48-2.742zm-8.679,10.506c6.885-1.647 1.703-12.562-5.024-8.679 6.24-1.143 10.763,5.812 5.024,8.679zm4.112-7.309c-.02-.628.215-1.003.456-1.37-.617-.144-.872-.65-1.826-.456 .192.873.164,1.966 1.37,1.826zm10.504,10.962c1.6.644 1.438-2.767 2.284-1.37-.426,1.25-1.402,1.948-1.827,3.197 1.562.243.699,2.201.456,3.197 2.344-1.311 1.797-5.512 3.654-7.308-2.778-.329-1.488-1.183-1.827-2.74-1.727-.661-.876,1.255-2.283.913 .265-1.257 1.137-1.908 1.37-3.197-.683-.536-.538-1.897-1.827-1.827-1.031,3.116-.875,5.93 0,9.135zm-40.65-3.653c-1.466.4-.947-1.185-1.827-1.37-.155,1.519-1.73,1.619-2.284,2.74 3.206.954.004,6.009 2.74,6.852-.139-1.065-.975-1.969.457-2.284-.324,1.694.78,1.96.457,3.654 4.519,1.469 9.271.081 15.073.456 .072-.537-.079-1.296.457-1.37 .589.63 1.984.452 3.197.457 .02.629-.215,1.003-.457,1.37 1.995.016 3.562-.396 5.024-.913 .483-2.714.511-5.884 1.827-7.765 3.169.349 8.923-1.997 9.592,2.74 .188-2.016-.124-3.53-.913-4.567-1.483.265-2.125-.312-3.197-.457-1.494,1.611-6.9,2.937-9.135.913-2.108.894-4.177.835-5.481-.456-2.949.499-5.333.556-6.851-.914-3.71.841-6.908.722-9.135-1.37-.761,1.434 1.698,1.866.456,2.284zm35.17,8.221c2.792-.033 4.479-5.759 2.74-7.309-.698,2.652-2.096,4.603-2.74,7.309zm-10.049-5.024c.348,2.692.536,3.533-.914,5.024 3.783,1.202 3.652-1.856 7.765-1.371 1.18-1.277.72-2.979 0-4.567-2.04.548-5.041.136-6.851.914zm-28.318,2.283c-1.178-.109.627-.785 0-1.827h-1.371c.132.684.588,3.3 1.371,1.827zm41.107,1.827c1.943.992 2.75-2.86.913-2.74 .219,1.437-.65,1.785-.913,2.74zm-.457,3.198c.186-.88 1.771-.36 1.37-1.827h-1.37c.437.85-1.368,1.526 0,1.827zm-4.11,5.937c3.053-.755.657-5.509-.457-6.395-5.607.79-12.036,3.187-16.9,3.197 .007-.754 1.267-.255 1.371-.913-2.557-1.133-4.548,2.475-5.481,0-.793.282-3.203,3.078-3.197,0-1.526.453-2.735,1.224-4.111,1.827-1.272-.679.965-2.041-.914-1.827-3.863,2.266-2.222,12.197 3.197,10.049 1.222-2.771 6.267-.879 10.505-2.284 6.041,5.848 7.797-3.242 10.505-5.48 .727.719.128,2.445-.457,3.197-.604-.006-.417-.801-.913-.914 .33,1.396-.467,1.665-.457,2.74 2.303-.742 3.202-2.888 5.481-3.653-.538-.072-1.297.078-1.37-.457 1.076.01 1.345-.787 2.74-.457-.146-1.059.073-1.753.457-2.283-1.39-2.144-2.965-.064-4.567-.914 1.452-.069 2.009-1.035 3.653-.913 2.168.984 1.767,3.46.915,5.48zm15.072-2.74c1.634.459 4.162-2.174 1.827-2.74-.3,1.222-1.308,1.736-1.827,2.74zm-12.332-.457c1.801.583 1.186-1.25 1.827-1.826-1.429-.212-2.039.396-1.827,1.826zm4.11.914c1.964.321 1.486-2.376.457-2.74-.525.539-.516,1.614-.457,2.74zm10.506,2.283c1.253-1.335 2.646-2.53 3.653-4.11-3.161-.866-4.514,2.471-3.653,4.11zm1.827.914c-1.235-.507-2.611-.354-3.654.457 3.448,1.906 7.475-1.489 6.852-3.654-3.084-.241-1.916,2.572-3.198,3.197zm-5.481-.914c-.103-.863.515-1.008.457-1.826h-1.827c-.129,1.194.167,1.964 1.37,1.826zm-4.567,0h-1.827c-.725,2.124 2.36,1.586 1.827,0zm15.529,2.741c-1.328.498-3.227.427-4.11,1.37 2.746.466 3.652,2.486 6.851,1.37 .865-2.027 2.226-3.561 3.197-5.481-2.554-.405-4.392,1.769-3.197,3.654-1.273.4-2.256,1.094-3.653,1.37 1.445-1.295 2.636-2.845 3.197-5.024-1.817-.141-2.474.878-2.285,2.741zm-14.616-1.827c-.138,1.203.633,1.499 1.827,1.37v-1.827c-.795-.034-1.42.102-1.827.457zm-8.678,2.74c-.593-4 2.962,1.171 2.74-2.74-2.911-.943-5.512,2.031-2.74,2.74zm.457,2.285c1.075.01 1.345-.787 2.74-.457-.371-1.786-2.066.312-.914-2.284h-1.826v2.741zm-18.271-.458c-2.646.031-3.322.264-5.024.457h-4.111c-1.315.765 2.334.363 3.197.456 3.258-.267 5.046.807 7.308-.456-.537-.072-1.296.079-1.37-.457zm21.011,4.111c.629-.589.452-1.983.457-3.197-2.761-.507-2.652,3.009-.457,3.197zm-16.9-1.827c-.222,2.123 1.373,4.371-.457,5.481-1.929-.495 1.467-5.902-2.284-5.481-1.555.31 2.013,1.519.457,1.827-4.525-3.322-11.41.097-16.443-1.827-1.299,1.138-1.583,3.289-1.371,5.938 4.999,5.539 17.999,2.086 25.121.456-1.239-.282-3.625.58-4.11-.456 3.463.593 4.589-1.559 7.308-.457 .322-1.354 1.361-1.988.914-4.11-1.633-1.779-6.106-2.426-9.135-1.371zm13.246,3.197c-.704,1.379 2.363,1.202 2.284.457-.95-.258-1.476-1.305-2.284-.457zm18.27,2.284c1.783.502 1.83-2.721.456-2.74-.525.54-.516,1.614-.456,2.74zm-2.741,1.827c1.949.172 2.275-2.422.457-2.74 .331,1.397-.788,1.343-.457,2.74zm-19.183,7.765c-1.5-1.85-1.508-5.191-3.197-6.852-.04,2.186 1.805,4.877.457,6.852-.956-1.784-.639-4.842-2.284-5.938-1.269,1.243 1.425,4.147 0,5.48-1.443-1.631.246-4.102-2.284-5.024-1.696,1.045-.482,4.999-2.74,5.481-.548-2.044 2.089-3.766 0-4.567-1.103,1.181-.022,4.545-2.284,4.567 .153-1.521 1.324-2.026.914-4.11-1.796.64-.932,3.939-3.197,4.11 .224-1.471 2.473-3.286 1.371-4.567-.816,2.229-2.228,3.861-3.654,5.48 11.426-.405 24.767-.968 36.083,0-1.2-1.093-2.491-1.808-3.653-2.283-2.999-1.229-4.912-1.89-7.309-3.654-2.104-1.551-4.039-4.01-7.308-4.11 .614,3.851 5.895,5.304 5.938,8.222-3.6-1.729-5.58-5.078-7.765-8.222-2.025,3.354 2.101,6.641.912,9.135zm23.295-5.938c-.333-1.038.822-3.563-.914-3.197-.076,1.493-1.057,2.952.914,3.197zm5.48,5.938c-9.034-.835-13.188-4.613-19.64-7.308-.354.102-.901.012-.914.456 5.817,3.329 12.576,9.764 20.554,6.852zm-10.048-4.567c1.844-.169 1.833,1.516 3.197,1.827 .377-1.291-.645-1.184-.457-2.284-.759.054-4.136-.249-2.74.457zm-34.713.457c-3.39.568-5.831,2.086-7.308,4.567h5.938c-.166-1.721 3.696-3.661 1.37-4.567zm44.761,3.197c-.736-2.31-3.665-2.425-5.938-3.197 .46,2.585 3.886,2.203 5.938,3.197zm18.271,2.283c1.989-.857 3.938-3.834 3.653-5.48h-1.37c.161,2.748-2.663,2.512-2.283,5.48zm-70.797-4.11c-2.274-.486-5.762,1.462-7.308,3.197 2.841.036 5.043-1.513 7.308-3.197zm-3.197,2.74c2.607,1.104 4.681-1.921 5.938-3.654-2.041,1.156-3.915,2.48-5.938,3.654zm65.772,3.197c1.294-.736 3.62-4.099 1.827-5.024-.804,1.589-2.653,3.153-1.827,5.024zm-85.412-.913c1.531.312 1.669-.767 1.827-1.827-1.43-.212-2.039.396-1.827,1.827zm2.283-1.371c.052.558.137,1.082.914.914 7.725.363 15.955.967 25.121,1.37 8.981.395 20.314.563 28.318,0 8.191-.577 16.649,1.346 23.751-.913-2.868-1.217-5.776-.088-8.678,0-18.331.551-46.769-1.838-64.859-.457 .051-.863 1.51-.317 1.37-1.37-1.945.185-4.704-.442-5.937.456zm88.609,5.024c.649-.873 1.735-1.31 1.827-2.74-1.754-.507-2.874,1.957-1.827,2.74zm-74.906,1.828c-.884-.791.392-3.741-1.371-3.654-1.042.634-.17,3.18-.457,4.567 1.438.458 2.9-.097 4.567.914 .284-1.695-.743-4.701.914-5.024 .438,1.39-.978,4.632.914,4.567 1.045-.781.167-3.486.457-5.024-3.823-.949-4.48.494-5.024,3.654zm-15.073,0c1.438-.512 1.034-.041 2.74,0v-3.654c-1.98.949-1.052.424-3.197,0-.1,1.47.808,1.932.457,3.654zm3.654,0c1.101-.187.993.834 2.284.457v-4.111h-2.284v3.654zm3.197.457h2.284c-.093-1.43.308-3.354-.457-4.111h-1.371c-.383,1.138-.597,2.447-.456,4.111zm84.499-2.285c1.564.795 2.838-1.982.913-1.827 .333,1.246-.907.92-.913,1.827zm-81.301,2.285c1.101-.188.993.834 2.284.456-.235-2.267-.19-2.436-.457-4.11h-1.371c-.706.663-.402,2.337-.456,3.654zm13.245,1.37c.833-.53-1.121-4.19.914-4.567v4.567c12.957.81 24.685-.226 40.194,0 1.097-.578-.252-3.602.913-4.111 1.426.401-.017,3.671 1.827,3.654-.373-1.902.621-3.812 0-4.567-16.931,2.048-30.662-.815-46.588.457 .983,1.452-.357,5.229 2.74,4.567zm45.219-4.568c.515,1.312.093,3.562.913,4.567-.076-.99 1.62-.207 2.284-.457-.062-.791-1.485-3.741.457-3.654 .055,1.772-.555,4.209 1.827,3.654 .597-1.554-1.018-3.188 0-3.654 1.42.103.771,2.273.913,3.654 2.451.533.658-3.176 1.37-3.197 1.711-.036.116,3.233 1.827,3.197 1.128-1.262-.718-2.32-.457-4.11-2.577.052-5.959-1.166-9.134,0zm11.418,4.111c-.331,1.039-3.161-.421-2.74,1.37 .311.126 3.142.287 3.653,0-.595-1.993-.262-4.914-1.827-5.938-1.202,1.536.082,3.638.914,4.568zm-79.017,1.37c3.484.903 9.203.973 13.702,1.37 8.986.796 19.378.782 28.318.914 3.913.058 7.999.584 11.419.457 1.353-.051 3.401-1.172 5.48-1.371 2.379-.228 6.463,1.393 6.395-1.37-22.204,2.152-47.223.53-66.685-1.37 .007,1.288.514,1.148 1.371,1.37zm66.228.914c.895.561 4.955,1.235 4.567-.914-1.501,1.326-3.904-1.088-4.567.914z" fill-rule="evenodd"/>
 <path d="m97.674,86.681c1.229-.539-.228,3.165-1.371,3.197-1.638-1.376 2.069-1.251 1.371-3.197z" fill-rule="evenodd"/>
 <path d="m117.31 118.65c4.37 4.917 3.935 14.64 5.481 22.381-2.99-0.037-1.165-2.761-1.371-4.111-0.896-5.891-2.12-13.314-4.11-18.27z" fill-rule="evenodd"/>
 <path d="m189.024,208.176c-.472,2.092-3.146,3.99-2.284,5.938 1.316-.968 1.413-3.154 2.74-4.111 1.095-.181-.253,2.081 1.37,1.37-2.109,1.545-3.114,4.194-5.48,5.481 .538-2.908.473-7.28 3.654-8.678z" fill-rule="evenodd"/>
 <path d="m162.076,182.599c-.501,1.427-.468,1.46 1.37,1.37 .216,1.434-1.229,1.206-1.37,2.283 .66,1.211 1.02-1.677 2.74-.913-.65,1.177-1.07,2.584-2.74,2.74-1.098-1.243-1.128-2.538-3.197-1.827 .752-1.53 1.349-3.217 3.197-3.653z" fill-rule="evenodd"/>
</svg>
